<svg width="100" height="100" viewBox="0 0 100 100" fill="none" xmlns="http://www.w3.org/2000/svg">
<rect width="100" height="100" fill="#F8F5ED"/>
<path d="M23.4299 45.252C19.6319 45.252 16.8779 42.408 16.8779 38.7C16.8779 34.992 19.6319 32.148 23.4299 32.148C25.7159 32.148 27.7319 33.282 28.8299 35.064L26.3459 36.504C25.7879 35.532 24.7079 34.956 23.4299 34.956C21.1979 34.956 19.7579 36.45 19.7579 38.7C19.7579 40.95 21.1979 42.444 23.4299 42.444C24.7079 42.444 25.8059 41.868 26.3459 40.896L28.8299 42.336C27.7499 44.118 25.7339 45.252 23.4299 45.252ZM37.0196 32.4H39.8996V45H37.0196V39.996H33.0596V45H30.1796V32.4H33.0596V37.224H37.0196V32.4ZM44.9424 42.228H49.9824V45H42.0624V32.4H49.8924V35.172H44.9424V37.26H49.4424V39.996H44.9424V42.228ZM58.2313 45L55.8553 40.86H54.4873V45H51.6073V32.4H56.6473C59.0413 32.4 60.9673 34.326 60.9673 36.72C60.9673 38.268 60.0313 39.672 58.6453 40.374L61.3273 45H58.2313ZM54.4873 35.1V38.34H56.6473C57.4393 38.34 58.0873 37.638 58.0873 36.72C58.0873 35.802 57.4393 35.1 56.6473 35.1H54.4873ZM69.3056 45L66.9296 40.86H65.5616V45H62.6816V32.4H67.7216C70.1156 32.4 72.0416 34.326 72.0416 36.72C72.0416 38.268 71.1056 39.672 69.7196 40.374L72.4016 45H69.3056ZM65.5616 35.1V38.34H67.7216C68.5136 38.34 69.1616 37.638 69.1616 36.72C69.1616 35.802 68.5136 35.1 67.7216 35.1H65.5616ZM83.6642 32.4L79.4342 40.158V45H76.5542V40.158L72.3242 32.4H75.6002L77.9942 37.26L80.3882 32.4H83.6642ZM31.0005 67H27.7245L25.6005 63.364L23.4765 67H20.2005L23.9625 60.538L20.3805 54.4H23.6565L25.6005 57.73L27.5445 54.4H30.8205L27.2385 60.538L31.0005 67ZM35.1426 64.228H40.1826V67H32.2626V54.4H40.0926V57.172H35.1426V59.26H39.6426V61.996H35.1426V64.228ZM48.8275 54.4H51.7075V67H49.5475L44.6875 60.16V67H41.8075V54.4H43.9675L48.8275 61.24V54.4ZM53.8661 54.4H56.7461V67H53.8661V54.4ZM63.1453 67.252C60.4993 67.252 58.8073 65.992 58.1053 64.138L60.5893 62.698C61.0393 63.742 61.8133 64.444 63.2353 64.444C64.6033 64.444 64.9453 63.904 64.9453 63.418C64.9453 62.644 64.2253 62.338 62.3353 61.816C60.4633 61.294 58.6273 60.394 58.6273 57.982C58.6273 55.552 60.6793 54.148 62.8573 54.148C64.9273 54.148 66.5473 55.138 67.4653 56.992L65.0353 58.414C64.6033 57.514 64.0093 56.956 62.8573 56.956C61.9573 56.956 61.5073 57.406 61.5073 57.91C61.5073 58.486 61.8133 58.882 63.7753 59.476C65.6833 60.052 67.8253 60.718 67.8253 63.382C67.8253 65.812 65.8813 67.252 63.1453 67.252ZM76.0167 54.4H78.8967V67H76.0167V61.996H72.0567V67H69.1767V54.4H72.0567V59.224H76.0167V54.4Z" fill="#0D1B47"/>
</svg>
